<svg width="182" height="182" viewBox="0 0 182 182" fill="none" xmlns="http://www.w3.org/2000/svg">
<path d="M135.103 118.68C129.77 123.533 122.89 126.2 115.69 126.147H115.21C116.81 122.84 117.663 119.107 117.663 115.16C117.663 100.44 105.716 88.4934 90.9962 88.4934C76.2762 88.4934 64.3296 100.44 64.3296 115.16C64.3296 119.107 65.1829 122.84 66.7829 126.147H56.5429C31.5829 124.387 31.5829 88.0668 56.5429 86.3068H56.8096C39.6896 38.6801 111.903 19.6401 120.17 69.6668C143.263 72.6001 152.596 103.373 135.103 118.68Z" fill="#EDEEF2"/>
<path d="M91 88.4941C76.28 88.4941 64.3334 100.441 64.3334 115.161C64.3334 119.107 65.1867 122.841 66.7867 126.147C67.2134 127.107 67.6934 128.014 68.2267 128.867C72.8134 136.601 81.2934 141.827 91 141.827C100.707 141.827 109.187 136.601 113.773 128.867C114.307 128.014 114.787 127.107 115.213 126.147C116.813 122.841 117.667 119.107 117.667 115.161C117.667 100.441 105.72 88.4941 91 88.4941ZM99 123.747C98.2 124.547 97.1867 124.921 96.1734 124.921C95.16 124.921 94.1467 124.547 93.3467 123.747L90.52 120.921L87.5867 123.854C86.7867 124.654 85.7734 125.027 84.76 125.027C83.7467 125.027 82.7334 124.654 81.9334 123.854C80.3867 122.307 80.3867 119.747 81.9334 118.201L84.8667 115.267L82.04 112.441C80.4934 110.894 80.4934 108.334 82.04 106.787C83.5867 105.241 86.1467 105.241 87.6934 106.787L90.52 109.614L93.1867 106.947C94.7334 105.401 97.2934 105.401 98.84 106.947C100.387 108.494 100.387 111.054 98.84 112.601L96.1734 115.267L99 118.094C100.547 119.694 100.547 122.201 99 123.747Z" fill="#C6C8CF"/>
</svg>
