<svg viewBox="0 0 128 128" fill="none" xmlns="http://www.w3.org/2000/svg">
<path d="M108.103 91.6801C102.77 96.5334 95.8895 99.2001 88.6896 99.1468H88.2096C89.8096 95.8401 90.6629 92.1068 90.6629 88.1601C90.6629 73.4401 78.7162 61.4934 63.9962 61.4934C49.2762 61.4934 37.3296 73.4401 37.3296 88.1601C37.3296 92.1068 38.1829 95.8401 39.7829 99.1468H29.5429C4.58287 97.3868 4.58287 61.0668 29.5429 59.3068H29.8096C12.6896 11.6801 84.9029 -7.35988 93.1696 42.6668C116.263 45.6001 125.596 76.3734 108.103 91.6801Z" fill="#EDEEF2"/>
<path d="M64 61.4941C49.28 61.4941 37.3334 73.4408 37.3334 88.1608C37.3334 92.1075 38.1867 95.8408 39.7867 99.1475C40.2134 100.107 40.6934 101.014 41.2267 101.867C45.8134 109.601 54.2934 114.827 64 114.827C73.7067 114.827 82.1867 109.601 86.7734 101.867C87.3067 101.014 87.7867 100.107 88.2134 99.1475C89.8134 95.8408 90.6667 92.1075 90.6667 88.1608C90.6667 73.4408 78.72 61.4941 64 61.4941ZM72 96.7475C71.2 97.5475 70.1867 97.9208 69.1734 97.9208C68.16 97.9208 67.1467 97.5475 66.3467 96.7475L63.52 93.9208L60.5867 96.8541C59.7867 97.6541 58.7734 98.0275 57.76 98.0275C56.7467 98.0275 55.7334 97.6541 54.9334 96.8541C53.3867 95.3075 53.3867 92.7475 54.9334 91.2008L57.8667 88.2675L55.04 85.4408C53.4934 83.8941 53.4934 81.3341 55.04 79.7875C56.5867 78.2408 59.1467 78.2408 60.6934 79.7875L63.52 82.6141L66.1867 79.9475C67.7334 78.4008 70.2934 78.4008 71.84 79.9475C73.3867 81.4941 73.3867 84.0541 71.84 85.6008L69.1734 88.2675L72 91.0941C73.5467 92.6941 73.5467 95.2008 72 96.7475Z" fill="#C6C8CF"/>
</svg>
