<svg width="24" height="24" viewBox="0 0 24 24" fill="none" xmlns="http://www.w3.org/2000/svg">
<path d="M12 2C6.475 2 2 6.59118 2 12.2539C2 16.7853 4.865 20.6279 8.8375 21.9823C9.3375 22.0788 9.52083 21.7618 9.52083 21.4892C9.52083 21.2457 9.5125 20.6006 9.50833 19.7461C6.72667 20.3647 6.14 18.3703 6.14 18.3703C5.685 17.1869 5.0275 16.8707 5.0275 16.8707C4.12167 16.235 5.0975 16.2478 5.0975 16.2478C6.10167 16.3196 6.62917 17.3039 6.62917 17.3039C7.52083 18.8719 8.97 18.4191 9.54167 18.1567C9.63167 17.4936 9.88917 17.0416 10.175 16.7853C7.95417 16.5289 5.62 15.6471 5.62 11.7181C5.62 10.5987 6.0075 9.68444 6.64917 8.96667C6.53667 8.70776 6.19917 7.66528 6.73667 6.2528C6.73667 6.2528 7.57417 5.97766 9.48667 7.30383C10.2867 7.07568 11.1367 6.96289 11.9867 6.95776C12.8367 6.96289 13.6867 7.07568 14.4867 7.30383C16.3867 5.97766 17.2242 6.2528 17.2242 6.2528C17.7617 7.66528 17.4242 8.70776 17.3242 8.96667C17.9617 9.68444 18.3492 10.5987 18.3492 11.7181C18.3492 15.6573 16.0117 16.5246 13.7867 16.7767C14.1367 17.0843 14.4617 17.7132 14.4617 18.6737C14.4617 20.046 14.4492 21.1483 14.4492 21.4816C14.4492 21.7507 14.6242 22.0711 15.1367 21.9686C19.1375 20.6236 22 16.7784 22 12.2539C22 6.59118 17.5225 2 12 2Z" fill="currentColor"/>
</svg>
