<svg width="24" height="24" viewBox="0 0 24 24" fill="none" xmlns="http://www.w3.org/2000/svg">
<path d="M12.095 3C13.9202 3 15.6084 3.35523 17.1594 4.06568C18.7105 4.77614 19.9367 5.74222 20.838 6.9639C21.7393 8.18554 22.19 9.51812 22.19 10.9616C22.19 12.405 21.7393 13.7395 20.838 14.965C19.9367 16.1904 18.7123 17.1584 17.165 17.8688C15.6177 18.5792 13.9277 18.9345 12.095 18.9345C11.5167 18.9345 10.9195 18.8931 10.3036 18.8104C7.6296 20.6674 6.20626 21.6071 6.0335 21.6297C5.95087 21.6598 5.87198 21.656 5.79689 21.6184C5.76683 21.5959 5.74431 21.5658 5.72928 21.5282C5.71425 21.4906 5.70676 21.4568 5.70676 21.4267V21.3816C5.75184 21.0884 6.09357 19.8667 6.73204 17.7166C5.28238 16.9948 4.13129 16.0382 3.27878 14.8465C2.42626 13.655 2 12.36 2 10.9616C2 9.51812 2.45067 8.18554 3.35201 6.9639C4.25335 5.74222 5.47954 4.77614 7.0306 4.06568C8.58165 3.35523 10.2698 3 12.095 3Z" fill="currentColor"/>
</svg>
