<?xml version="1.0" standalone="no"?>
<!DOCTYPE svg PUBLIC "-//W3C//DTD SVG 20010904//EN"
 "http://www.w3.org/TR/2001/REC-SVG-20010904/DTD/svg10.dtd">
<svg version="1.0" xmlns="http://www.w3.org/2000/svg"
 width="512.000000pt" height="512.000000pt" viewBox="0 0 512.000000 512.000000"
 preserveAspectRatio="xMidYMid meet">

<g transform="translate(0.000000,512.000000) scale(0.100000,-0.100000)"
fill="#000000" stroke="none">
<path d="M3518 4690 c-170 -20 -384 -106 -518 -209 -36 -27 -255 -240 -486
-473 -455 -457 -497 -507 -571 -682 -95 -225 -108 -491 -36 -721 63 -198 220
-426 328 -476 80 -37 174 -19 239 45 43 44 59 93 54 166 -4 62 -17 85 -103
190 -162 196 -179 485 -43 718 23 40 155 180 453 478 413 414 422 422 505 463
193 94 397 94 587 1 318 -157 433 -572 245 -885 -23 -39 -118 -144 -273 -300
-130 -132 -244 -254 -253 -272 -21 -43 -20 -128 3 -179 40 -89 144 -137 244
-114 50 12 63 24 295 254 134 132 266 270 293 306 158 209 235 483 209 740
-52 504 -438 893 -943 949 -106 12 -130 12 -229 1z"/>
<path d="M2720 2997 c-85 -39 -130 -107 -130 -195 0 -70 16 -105 84 -182 103
-119 156 -260 156 -420 0 -106 -18 -180 -71 -290 -41 -84 -48 -92 -468 -511
-418 -419 -428 -427 -511 -468 -193 -94 -397 -94 -587 -1 -318 157 -433 572
-245 885 23 39 118 143 273 300 152 154 244 254 254 277 67 161 -77 328 -247
288 -51 -12 -64 -24 -296 -254 -134 -132 -266 -270 -293 -306 -66 -85 -153
-265 -178 -365 -107 -422 40 -856 377 -1110 369 -279 857 -293 1243 -35 84 56
891 858 971 964 252 336 273 811 52 1176 -61 102 -166 217 -219 241 -45 21
-127 24 -165 6z"/>
</g>
</svg>
