<?xml version="1.0" standalone="no"?>
<!DOCTYPE svg PUBLIC "-//W3C//DTD SVG 20010904//EN"
 "http://www.w3.org/TR/2001/REC-SVG-20010904/DTD/svg10.dtd">
<svg version="1.0" xmlns="http://www.w3.org/2000/svg"
 width="512.000000pt" height="512.000000pt" viewBox="0 0 512.000000 512.000000"
 preserveAspectRatio="xMidYMid meet">

<g transform="translate(0.000000,512.000000) scale(0.100000,-0.100000)"
fill="#000000" stroke="none">
<path d="M3105 4673 c-78 -41 -115 -103 -115 -193 0 -89 37 -152 112 -191 35
-18 64 -19 448 -19 225 0 410 -3 410 -8 0 -4 -306 -313 -681 -687 -463 -462
-687 -693 -700 -720 -27 -57 -24 -113 9 -175 35 -68 91 -108 160 -117 102 -12
75 -35 822 712 377 377 688 685 692 685 5 0 8 -185 8 -410 0 -359 2 -415 16
-443 40 -79 103 -117 194 -117 91 0 154 38 194 117 14 29 16 107 16 726 0 579
-2 700 -14 728 -17 39 -78 100 -119 117 -21 9 -209 12 -725 12 -616 -1 -700
-3 -727 -17z"/>
<path d="M1278 4259 c-169 -11 -279 -38 -408 -101 -92 -45 -116 -63 -195 -142
-128 -129 -189 -241 -223 -409 -15 -74 -17 -195 -17 -1252 0 -1169 0 -1170 22
-1269 15 -69 39 -134 79 -215 50 -103 66 -125 143 -201 145 -142 288 -208 502
-230 133 -13 2178 -13 2309 0 132 14 226 42 344 102 174 89 319 256 380 439
43 131 50 228 50 739 1 446 0 477 -18 510 -26 49 -46 69 -86 90 -112 57 -242
18 -301 -90 -11 -20 -15 -129 -20 -525 -5 -420 -9 -509 -22 -557 -29 -99 -92
-181 -184 -235 -97 -56 -83 -56 -1149 -60 -1076 -5 -1280 1 -1379 38 -84 31
-183 130 -214 214 -38 100 -43 291 -38 1370 4 1076 4 1061 60 1158 54 92 136
155 235 184 48 13 137 17 557 22 444 5 503 8 531 23 100 54 139 187 86 293
-21 43 -42 64 -87 89 -39 20 -52 21 -435 22 -217 1 -452 -2 -522 -7z"/>
</g>
</svg>
