<svg viewBox="0 0 255 151" fill="none" xmlns="http://www.w3.org/2000/svg">
<path d="M127.5 96C154.01 96 175.5 74.5097 175.5 48C175.5 21.4903 154.01 0 127.5 0C100.99 0 79.5 21.4903 79.5 48C79.5 74.5097 100.99 96 127.5 96Z" fill="#70ACDE"/>
<path d="M141.707 49.0335L137.02 50.6402L134.833 45.9402L113.267 32.4735L103.9 30.8535L80.06 40.6602C79.6933 43.0535 79.5 45.5069 79.5 48.0002C79.5 73.6802 99.6733 94.6535 125.033 95.9402L168.747 40.2735L141.707 49.0335Z" fill="#4B91C9"/>
<path d="M168.187 36.8669C166.72 33.5802 162.873 32.1002 159.587 33.5669L149.227 38.1802L112.987 26.7535C112.533 26.6135 112.04 26.6535 111.613 26.8735L103.9 30.8535C103.14 31.2469 103.133 32.3335 103.887 32.7402L130.053 46.7135L112.807 54.4002L91.1065 46.6269C90.7065 46.4869 90.1999 46.5269 89.6932 46.7469L83.9599 50.0135C83.0465 50.4069 82.6332 51.4935 83.2332 51.9002L105.913 67.9535L105.927 67.9469C107.067 68.8335 108.473 69.3335 109.927 69.3335C110.813 69.3335 111.713 69.1535 112.573 68.7669L164.88 45.4735C168.173 44.0069 169.647 40.1602 168.187 36.8669Z" fill="#F8FBFE"/>
<path d="M244.62 132.639C241.339 132.639 239.762 134.862 239.762 139.143V139.967C239.762 144.372 241.173 146.471 244.412 146.471C247.858 146.471 249.851 144.001 249.851 140.914V137.126C249.851 135.027 248.232 132.639 244.62 132.639ZM252.384 120C253.754 120 255 120.7 255 122.182V148.695C255 150.135 253.796 150.794 252.509 150.794C251.263 150.794 250.059 150.135 250.059 148.695V147.871H249.934C248.73 150.053 246.114 150.876 243.374 150.876C237.603 150.876 234.571 147.13 234.571 140.09V139.02C234.571 131.857 238.225 128.193 243.748 128.193C247.36 128.193 249.104 129.633 249.768 130.622V122.182C249.768 120.7 251.055 120 252.384 120Z" fill="#1F1F22"/>
<path d="M220.443 141.202C217.703 141.202 216.748 142.314 216.748 144.084V144.166C216.748 145.731 217.827 146.554 219.862 146.554C221.481 146.554 222.727 146.307 223.723 145.731C225.052 144.949 225.592 144.002 225.592 142.273V141.202H220.443ZM221.523 128.193C226.879 128.193 230.741 130.869 230.741 135.439V148.818C230.741 150.177 229.578 150.795 228.374 150.795C227.17 150.795 226.007 150.177 226.007 148.818V147.748H225.966C225.55 148.695 224.678 149.395 223.516 149.971C222.436 150.506 220.858 150.877 219.447 150.877C214.506 150.877 211.682 148.489 211.682 144.413V143.755C211.682 140.008 213.841 137.209 220.319 137.209H225.55V136.633C225.55 133.833 224.305 132.68 221.481 132.68C219.613 132.68 217.827 133.174 216.167 134.162C215.045 134.821 213.883 134.451 213.219 133.38C212.596 132.351 212.72 131.075 213.8 130.375C215.793 129.058 218.616 128.193 221.523 128.193Z" fill="#1F1F22"/>
<path d="M186.611 128.193C189.435 128.193 191.884 129.593 192.715 131.651C194.334 129.387 196.369 128.193 199.815 128.193C204.05 128.193 207.704 131.075 207.704 136.756V148.613C207.704 150.095 206.459 150.795 205.088 150.795C203.76 150.795 202.472 150.095 202.472 148.613V137.826C202.472 133.751 200.521 132.804 198.32 132.804C196.286 132.804 194.127 133.874 194.127 137.662V148.613C194.127 150.095 192.881 150.795 191.511 150.795C190.182 150.795 188.895 150.095 188.895 148.613V137.744C188.895 133.915 187.068 132.804 184.743 132.804C182.293 132.804 180.549 134.327 180.549 137.456V148.613C180.549 150.095 179.303 150.795 177.933 150.795C176.605 150.795 175.317 150.095 175.317 148.613V130.54C175.317 129.099 176.522 128.44 177.767 128.44C179.054 128.44 180.258 129.099 180.258 130.54V131.692C181.463 129.469 183.705 128.193 186.611 128.193Z" fill="#1F1F22"/>
<path d="M160.395 128.193C167.121 128.193 171.107 131.939 171.107 139.02V140.05C171.107 147.131 167.121 150.877 160.395 150.877C153.668 150.877 149.682 147.131 149.682 140.05V139.02C149.682 131.939 153.668 128.193 160.395 128.193ZM160.395 132.722C156.658 132.722 154.955 134.656 154.955 139.103V139.967C154.955 144.413 156.658 146.348 160.395 146.348C164.132 146.348 165.834 144.413 165.834 139.967V139.103C165.834 134.656 164.132 132.722 160.395 132.722Z" fill="#1F1F22"/>
<path d="M142.802 121.029C144.048 121.029 145.252 121.688 145.252 123.17V147.212C145.252 149.806 144.38 150.629 141.722 150.629C139.688 150.629 138.899 150.218 136.781 146.471L128.934 132.556C128.103 131.074 127.439 129.675 126.941 127.822V148.653C126.941 150.135 125.737 150.794 124.491 150.794C123.245 150.794 122.041 150.135 122.041 148.653V124.611C122.041 122.017 122.913 121.194 125.571 121.194C127.605 121.194 128.394 121.647 130.512 125.352L138.359 139.267C139.19 140.749 139.854 142.149 140.352 144.001V123.17C140.352 121.688 141.556 121.029 142.802 121.029Z" fill="#1F1F22"/>
<path d="M113.763 120C115.133 120 116.379 120.7 116.379 122.223V148.571C116.379 150.094 115.133 150.794 113.763 150.794C112.393 150.794 111.147 150.094 111.147 148.571V122.223C111.147 120.7 112.393 120 113.763 120Z" fill="#1F1F22"/>
<path d="M95.7734 141.202C93.033 141.202 92.078 142.314 92.078 144.084V144.166C92.078 145.731 93.1575 146.554 95.1921 146.554C96.8114 146.554 98.0571 146.307 99.0536 145.731C100.382 144.949 100.922 144.002 100.922 142.273V141.202H95.7734ZM96.853 128.193C102.209 128.193 106.071 130.869 106.071 135.439V148.818C106.071 150.177 104.908 150.795 103.704 150.795C102.5 150.795 101.337 150.177 101.337 148.818V147.748H101.296C100.881 148.695 100.009 149.395 98.846 149.971C97.7664 150.506 96.1886 150.877 94.7769 150.877C89.8358 150.877 87.0124 148.489 87.0124 144.413V143.755C87.0124 140.008 89.1715 137.209 95.6488 137.209H100.881V136.633C100.881 133.833 99.6349 132.68 96.8114 132.68C94.943 132.68 93.1575 133.174 91.4967 134.162C90.3756 134.821 89.213 134.451 88.5487 133.38C87.9258 132.351 88.0504 131.075 89.1299 130.375C91.123 129.058 93.9464 128.193 96.853 128.193Z" fill="#1F1F22"/>
<path d="M66.1983 120C67.5685 120 68.8142 120.7 68.8142 122.182V130.91C70.3089 128.769 73.257 128.193 75.0839 128.193C81.063 128.193 84.011 131.939 84.011 138.979V140.049C84.011 147.212 80.3571 150.876 74.8348 150.876C71.8037 150.876 69.7276 149.641 68.6896 147.912H68.565V148.695C68.565 150.135 67.3609 150.794 66.0738 150.794C64.7866 150.794 63.5825 150.135 63.5825 148.695V122.182C63.5825 120.7 64.8696 120 66.1983 120ZM74.0459 132.639C70.5581 132.639 68.7311 134.903 68.7311 137.991V141.819C68.7311 144.084 71.0148 146.471 74.1704 146.471C77.2015 146.471 78.8208 144.248 78.8208 139.926V139.102C78.8208 134.862 77.4922 132.639 74.0459 132.639Z" fill="#1F1F22"/>
<path d="M48.6598 128.193C55.3863 128.193 59.3724 131.939 59.3724 139.02V140.05C59.3724 147.131 55.3863 150.877 48.6598 150.877C41.9333 150.877 37.9473 147.131 37.9473 140.05V139.02C37.9473 131.939 41.9333 128.193 48.6598 128.193ZM48.6598 132.722C44.9229 132.722 43.2205 134.656 43.2205 139.103V139.967C43.2205 144.413 44.9229 146.348 48.6598 146.348C52.3968 146.348 54.0991 144.413 54.0991 139.967V139.103C54.0991 134.656 52.3968 132.722 48.6598 132.722Z" fill="#1F1F22"/>
<path d="M31.1224 120C32.4926 120 33.7382 120.7 33.7382 122.223V148.571C33.7382 150.094 32.4926 150.794 31.1224 150.794C29.7522 150.794 28.5065 150.094 28.5065 148.571V122.223C28.5065 120.7 29.7522 120 31.1224 120Z" fill="#1F1F22"/>
<path d="M13.3284 120.823C17.2314 120.823 19.9718 121.729 21.9233 123.046C23.169 123.911 23.252 125.311 22.4631 126.422C21.6742 127.534 20.4286 127.822 19.3905 127.163C17.8127 126.175 15.8612 125.599 13.3284 125.599C7.76451 125.599 5.35627 127.904 5.35627 135.479V136.344C5.35627 143.919 7.63995 146.224 13.5775 146.224C15.6121 146.224 17.0238 145.977 18.5601 145.36V138.485H13.9097C12.6225 138.485 12.0412 137.456 12.0412 136.262C12.0412 135.109 12.6225 134.08 13.9097 134.08H20.304C22.9614 134.08 23.8333 134.903 23.8333 137.497V145.648C23.8333 147.748 23.2105 148.777 21.4251 149.518C19.2244 150.424 16.2764 151 13.4114 151C4.73345 151 0 147.171 0 136.756V135.068C0 124.652 4.73345 120.823 13.3284 120.823Z" fill="#1F1F22"/>
</svg>
